<?xml version="1.0" standalone="no"?>
<!DOCTYPE svg PUBLIC "-//W3C//DTD SVG 20010904//EN"
 "http://www.w3.org/TR/2001/REC-SVG-20010904/DTD/svg10.dtd">
<svg version="1.0" xmlns="http://www.w3.org/2000/svg"
 width="1280.000000pt" height="870.000000pt" viewBox="0 0 1280.000000 870.000000"
 preserveAspectRatio="xMidYMid meet">
<g transform="translate(0.000000,870.000000) scale(0.100000,-0.100000)"
fill="#000000" stroke="none">
<path d="M8421 8503 c-30 -109 -57 -205 -62 -214 -6 -11 -28 -19 -71 -23 -35
-4 -91 -14 -126 -22 -35 -8 -69 -14 -75 -14 -7 0 -64 74 -126 165 -63 91 -119
169 -125 174 -7 5 -59 -13 -136 -48 -102 -47 -124 -61 -122 -77 1 -10 24 -102
51 -203 27 -101 47 -189 45 -195 -3 -6 -23 -24 -45 -40 -22 -15 -66 -52 -98
-82 -32 -30 -65 -54 -72 -54 -8 0 -95 38 -193 85 -98 47 -184 85 -190 85 -6
-1 -23 -19 -39 -41 -15 -21 -51 -73 -79 -114 l-52 -75 147 -148 c81 -81 147
-155 147 -165 0 -10 -7 -31 -15 -48 -9 -16 -29 -69 -44 -116 -24 -72 -33 -88
-53 -94 -13 -3 -106 -12 -205 -19 -100 -7 -186 -16 -192 -19 -13 -9 -37 -269
-25 -280 5 -5 95 -31 199 -60 121 -32 195 -57 203 -68 6 -9 12 -31 12 -47 0
-17 9 -71 19 -121 16 -75 16 -92 5 -105 -7 -9 -85 -65 -173 -125 -88 -61 -160
-114 -161 -120 0 -9 107 -245 114 -252 2 -2 88 19 192 47 104 27 199 50 211
50 13 0 31 -13 45 -32 12 -18 51 -66 86 -106 l64 -74 -47 -101 c-26 -56 -67
-143 -91 -194 l-43 -92 106 -76 c58 -42 111 -79 118 -81 6 -3 81 61 164 142
l153 148 46 -18 c26 -10 82 -31 125 -45 42 -15 82 -32 87 -37 5 -5 17 -101 26
-214 9 -113 18 -206 18 -207 5 -7 276 -26 282 -20 4 4 29 87 55 184 27 98 53
188 58 200 8 16 22 23 58 28 26 3 81 13 122 21 40 8 81 14 91 14 12 0 57 -56
137 -171 99 -143 121 -169 138 -165 31 8 232 103 237 113 3 4 -19 98 -49 208
l-53 200 24 20 c44 37 169 140 185 152 13 10 49 -3 205 -77 104 -50 191 -90
192 -90 3 0 144 195 158 219 6 9 -34 56 -139 161 -125 125 -147 152 -142 171
10 44 83 239 93 248 5 5 101 16 213 25 113 9 206 17 207 19 4 4 24 218 24 252
l0 32 -194 53 c-107 29 -199 56 -206 60 -6 4 -16 39 -20 78 -5 39 -16 98 -23
131 -11 45 -11 64 -3 75 6 7 84 64 174 125 89 62 162 116 162 121 0 16 -110
245 -119 248 -5 2 -96 -20 -202 -47 -105 -28 -197 -51 -203 -51 -7 0 -28 21
-47 48 -18 26 -57 73 -86 104 -29 32 -53 61 -53 64 0 4 41 92 90 197 50 105
87 193 83 197 -41 34 -215 150 -225 150 -7 0 -79 -66 -159 -146 l-147 -146
-105 41 c-58 22 -112 41 -119 41 -41 0 -46 20 -64 230 -9 113 -18 207 -21 210
-2 2 -54 9 -116 16 -62 6 -123 15 -138 18 l-25 7 -53 -198z m280 -567 c308
-78 556 -270 695 -539 87 -168 124 -320 124 -506 0 -511 -369 -951 -877 -1047
-122 -23 -346 -15 -458 16 -482 132 -803 546 -805 1040 -1 377 196 719 529
920 118 70 261 119 426 144 74 11 272 -4 366 -28z"/>
<path d="M2487 7633 c-2 -5 -37 -118 -76 -253 -40 -135 -79 -255 -87 -267 -10
-16 -24 -23 -47 -23 -36 0 -232 -34 -283 -49 -17 -5 -36 -6 -41 -2 -5 3 -74
98 -152 211 -79 113 -150 213 -159 222 -16 15 -28 12 -182 -58 -91 -42 -169
-79 -173 -84 -5 -4 21 -125 57 -268 36 -143 64 -266 60 -274 -3 -7 -35 -34
-72 -60 -37 -27 -100 -77 -140 -113 -61 -55 -76 -63 -95 -56 -12 5 -127 57
-255 115 -128 58 -236 106 -240 106 -4 0 -58 -69 -119 -153 l-113 -152 195
-195 c107 -107 195 -200 195 -206 0 -6 -14 -42 -31 -80 -18 -38 -47 -111 -65
-163 -18 -51 -35 -95 -37 -97 -2 -2 -131 -15 -288 -30 -156 -14 -284 -26 -285
-27 -1 -1 -9 -72 -19 -157 -9 -85 -20 -167 -25 -182 -5 -15 -6 -30 -1 -32 4
-3 124 -35 266 -72 143 -36 267 -70 276 -75 12 -6 18 -30 23 -91 4 -45 16
-123 26 -172 11 -48 17 -92 14 -97 -3 -5 -108 -79 -234 -164 -126 -85 -231
-159 -233 -163 -5 -8 133 -317 148 -331 6 -5 108 18 265 60 140 37 266 68 280
68 19 0 35 -14 69 -61 25 -34 75 -94 113 -134 61 -66 67 -76 58 -99 -5 -14
-62 -126 -126 -250 -63 -124 -114 -230 -112 -235 4 -13 290 -210 304 -210 10
0 131 112 370 342 l50 49 101 -40 c56 -22 130 -48 165 -57 34 -10 69 -22 75
-28 8 -8 18 -100 30 -280 16 -253 18 -268 37 -276 33 -12 357 -33 366 -23 4 4
41 120 81 258 41 137 81 257 90 266 10 10 43 18 88 23 40 3 115 16 168 27 52
11 101 18 108 15 7 -2 82 -104 166 -225 84 -122 155 -221 159 -221 11 0 334
150 343 159 4 4 -22 126 -58 270 -36 144 -63 266 -60 272 4 5 39 33 79 63 40
29 101 79 136 110 34 31 69 56 77 56 8 0 124 -50 258 -111 134 -61 249 -109
254 -108 6 2 60 71 121 154 l110 150 -195 195 c-107 107 -195 200 -195 206 0
6 15 44 34 85 19 41 46 110 61 154 16 44 33 85 39 92 7 7 107 20 251 32 132
12 258 24 281 27 l41 5 20 182 c12 100 18 185 15 189 -4 4 -124 37 -267 74
-143 36 -265 70 -271 75 -6 5 -14 44 -18 87 -3 42 -15 119 -26 171 -10 52 -17
98 -14 103 3 5 108 77 232 160 125 83 230 154 235 157 11 11 -139 335 -157
339 -9 2 -135 -28 -281 -67 -145 -39 -266 -71 -268 -71 -3 0 -27 30 -55 68
-27 37 -80 100 -116 140 l-66 72 125 250 c69 137 125 253 125 257 -1 11 -290
208 -306 208 -8 0 -87 -70 -176 -156 -90 -85 -182 -172 -205 -193 l-42 -37
-88 35 c-48 19 -122 44 -163 56 -41 13 -81 28 -88 34 -9 9 -17 93 -29 277 -9
145 -19 268 -23 272 -4 4 -83 14 -176 22 -199 17 -202 17 -207 8z m258 -968
c195 -44 370 -120 527 -226 392 -268 622 -765 569 -1229 -40 -343 -176 -625
-421 -870 -440 -442 -1112 -560 -1666 -295 -390 187 -669 547 -749 966 -55
290 -10 591 129 870 207 415 610 711 1081 794 107 19 431 13 530 -10z"/>
<path d="M6230 6109 c-30 -104 -59 -197 -65 -205 -7 -10 -40 -19 -90 -25 -44
-5 -96 -14 -115 -19 -73 -20 -71 -22 -192 157 -62 92 -116 171 -119 175 -3 5
-63 -17 -132 -48 -102 -45 -127 -61 -127 -77 0 -11 20 -98 45 -193 25 -95 45
-181 45 -192 0 -14 -28 -42 -82 -85 -46 -35 -92 -74 -102 -86 -11 -11 -23 -21
-28 -21 -5 0 -95 41 -199 92 -113 54 -193 88 -197 82 -4 -6 -40 -55 -79 -111
-40 -55 -73 -105 -73 -111 0 -6 65 -78 145 -161 l146 -150 -17 -38 c-9 -21
-31 -78 -49 -127 -17 -48 -38 -92 -46 -96 -8 -4 -100 -13 -206 -20 -106 -7
-196 -16 -202 -19 -9 -6 -43 -272 -36 -280 2 -2 91 -28 197 -58 106 -30 198
-59 204 -64 7 -5 15 -38 19 -72 4 -34 13 -93 21 -130 8 -38 12 -72 10 -76 -3
-4 -81 -58 -175 -121 -94 -63 -170 -119 -171 -124 0 -10 100 -237 110 -249 4
-5 99 15 211 43 l203 52 26 -29 c87 -103 150 -184 150 -196 0 -8 -38 -95 -85
-193 -47 -97 -84 -183 -81 -189 3 -10 170 -133 213 -158 7 -5 71 50 163 140
l152 147 46 -18 c26 -10 83 -31 127 -46 57 -21 83 -35 91 -52 6 -13 17 -108
24 -213 6 -104 14 -192 16 -194 5 -6 276 -32 281 -27 2 2 29 91 58 197 30 106
59 197 64 202 10 10 178 38 246 40 l39 2 113 -165 c63 -91 119 -166 126 -168
13 -3 234 92 249 106 4 4 -16 99 -44 211 l-51 204 25 21 c85 71 173 142 184
151 9 6 69 -18 200 -80 103 -50 191 -90 195 -90 4 0 44 51 89 113 l82 113
-146 149 c-80 83 -146 155 -146 162 0 6 18 58 40 114 22 56 40 109 40 117 0 8
6 19 13 25 6 6 103 17 215 25 112 8 206 18 209 20 10 10 34 270 26 277 -4 5
-91 31 -193 60 -102 29 -192 56 -201 61 -11 6 -18 29 -23 76 -3 37 -12 97 -20
133 -8 36 -12 68 -10 72 3 4 79 57 170 118 91 62 167 117 170 124 6 17 -96
247 -112 253 -7 2 -100 -18 -208 -46 -108 -28 -198 -51 -200 -51 -2 0 -28 33
-59 73 -30 39 -69 85 -86 101 -17 17 -31 38 -31 48 0 10 21 60 46 111 26 50
66 133 90 184 l42 92 -106 77 c-59 42 -112 78 -118 81 -6 2 -79 -61 -162 -141
-82 -80 -154 -146 -159 -146 -6 0 -39 13 -74 29 -36 16 -90 37 -121 46 -32 9
-60 20 -62 24 -3 4 -12 99 -21 212 -9 112 -19 207 -23 210 -6 6 -213 29 -259
29 -18 0 -26 -22 -73 -191z m180 -539 c338 -54 640 -274 795 -580 67 -132 115
-335 115 -483 0 -148 -56 -368 -127 -497 -117 -215 -304 -387 -525 -482 -333
-144 -713 -107 -1023 97 -134 89 -282 258 -359 412 -112 224 -139 492 -76 745
26 103 112 282 178 368 170 223 417 374 691 420 69 11 257 11 331 0z"/>
<path d="M10981 4573 c-56 -219 -84 -323 -92 -349 -9 -31 -13 -32 -87 -43 -42
-6 -103 -18 -134 -25 -43 -10 -61 -10 -71 -2 -8 6 -64 82 -126 168 -61 86
-115 159 -119 161 -14 9 -252 -111 -252 -127 0 -8 23 -95 50 -193 28 -98 50
-187 50 -198 0 -12 -13 -31 -30 -44 -17 -12 -64 -51 -106 -87 l-75 -66 -189
86 c-104 47 -193 86 -197 86 -4 0 -44 -53 -87 -117 l-80 -117 154 -146 c121
-116 152 -151 147 -166 -60 -185 -87 -249 -109 -255 -12 -4 -106 -15 -208 -24
-102 -9 -188 -20 -192 -23 -7 -8 -30 -273 -24 -279 2 -3 96 -28 207 -56 l204
-52 16 -95 c9 -52 21 -112 27 -133 6 -21 9 -44 6 -50 -3 -9 -244 -186 -336
-248 -11 -7 108 -259 122 -259 6 0 100 25 208 55 l197 56 35 -43 c19 -24 55
-65 80 -93 25 -27 52 -58 59 -67 11 -15 1 -44 -74 -207 -47 -105 -84 -195 -81
-200 10 -15 214 -151 227 -151 7 0 76 66 153 146 123 128 142 145 165 140 56
-11 237 -78 247 -91 6 -8 19 -104 29 -215 10 -110 18 -201 19 -201 1 -1 63 -6
139 -13 94 -8 141 -8 146 -1 4 5 29 96 56 200 26 105 51 193 54 197 4 4 58 17
121 28 63 11 125 22 136 26 19 5 38 -17 144 -165 67 -94 128 -171 135 -171 7
0 66 25 129 57 76 37 116 62 116 72 0 9 -22 95 -50 191 -27 96 -50 185 -50
196 0 13 15 33 38 50 20 15 67 55 104 87 l67 59 38 -15 c21 -8 107 -47 192
-86 84 -39 157 -68 162 -66 4 3 42 55 85 116 l76 111 -152 153 -152 152 35 94
c19 52 38 108 42 126 3 17 12 36 18 41 7 5 95 17 197 26 102 9 195 19 206 21
20 4 23 14 29 97 4 51 11 113 16 137 5 24 8 46 5 48 -3 3 -94 27 -203 55 -108
27 -203 54 -209 59 -7 5 -17 44 -23 87 -6 42 -18 100 -25 129 -11 39 -11 55
-2 66 6 8 82 64 168 126 86 61 159 115 162 119 8 14 -112 252 -128 252 -9 0
-96 -22 -194 -50 -98 -27 -187 -50 -198 -50 -12 0 -34 19 -55 48 -20 26 -60
73 -89 105 l-52 57 86 190 c47 104 86 193 86 197 0 4 -53 44 -117 87 l-117 80
-147 -154 c-114 -119 -151 -152 -165 -147 -94 30 -246 85 -251 91 -4 4 -17
100 -28 214 l-20 207 -65 6 c-36 4 -100 9 -142 13 l-77 7 -10 -38z m159 -697
c249 -38 474 -154 637 -329 210 -225 318 -542 285 -834 -55 -482 -400 -859
-870 -949 -89 -17 -272 -19 -364 -4 -410 65 -748 364 -862 762 -56 195 -56
391 0 587 131 457 538 767 1024 779 30 1 98 -5 150 -12z"/>
<path d="M7931 3568 c-4 -13 -27 -101 -51 -197 -24 -95 -49 -179 -56 -186 -7
-6 -41 -15 -75 -19 -35 -3 -92 -13 -127 -22 -45 -11 -66 -13 -76 -5 -7 6 -64
83 -126 171 -63 88 -120 160 -126 160 -14 0 -242 -109 -248 -118 -2 -4 21 -92
50 -197 30 -104 54 -197 54 -206 0 -9 -17 -29 -37 -45 -21 -15 -68 -54 -104
-86 -36 -32 -70 -58 -75 -58 -6 0 -95 39 -198 86 -103 47 -189 84 -190 82 -2
-2 -38 -54 -81 -116 l-78 -114 153 -153 152 -153 -25 -63 c-14 -35 -33 -91
-43 -124 -10 -33 -22 -65 -26 -71 -5 -7 -93 -19 -208 -29 -110 -10 -204 -21
-210 -25 -13 -8 -34 -270 -23 -280 4 -4 94 -29 198 -55 105 -27 195 -52 201
-57 7 -5 15 -34 19 -66 4 -31 13 -84 21 -117 7 -33 14 -69 14 -80 0 -15 -43
-51 -161 -135 -89 -63 -166 -118 -172 -122 -7 -4 11 -52 49 -132 44 -93 64
-126 77 -126 10 0 98 22 196 50 98 27 186 50 197 50 10 0 31 -17 46 -38 14
-20 54 -67 87 -105 51 -57 59 -71 52 -90 -5 -12 -43 -96 -85 -187 -42 -90 -76
-169 -76 -175 0 -6 52 -47 116 -90 l116 -80 148 155 148 155 33 -13 c19 -8 80
-30 136 -49 119 -40 103 -7 129 -283 9 -96 17 -176 18 -176 0 -1 55 -7 121
-13 66 -6 129 -13 140 -16 19 -6 25 9 75 207 l55 213 100 17 c55 9 116 21 137
26 20 5 40 7 45 3 5 -3 60 -78 123 -166 62 -88 116 -164 120 -168 9 -10 260
108 260 122 0 5 -25 99 -55 208 l-56 198 33 25 c18 14 67 56 110 93 l78 68
187 -86 c103 -47 192 -85 198 -85 5 1 45 52 87 115 l78 115 -152 149 -152 148
11 34 c75 220 81 233 105 240 12 4 106 15 208 24 102 9 188 19 191 21 3 2 9
52 13 111 4 60 9 122 12 139 l6 31 -209 54 -208 54 -9 50 c-5 28 -17 88 -26
135 -10 46 -16 89 -14 95 3 5 77 61 165 124 89 63 163 120 166 128 6 15 -106
253 -118 253 -5 0 -97 -25 -206 -55 l-198 -56 -40 48 c-22 26 -64 73 -92 104
-29 31 -53 60 -53 66 0 6 38 94 85 197 47 103 85 189 85 191 0 8 -221 155
-234 155 -7 0 -75 -66 -151 -146 -122 -128 -142 -145 -164 -141 -43 9 -246 81
-252 90 -3 5 -14 96 -24 203 -10 106 -22 199 -26 206 -8 13 -117 26 -222 27
-51 1 -58 -2 -66 -21z m206 -713 c268 -51 503 -198 669 -418 62 -83 149 -263
173 -362 32 -127 42 -242 30 -367 -70 -752 -867 -1198 -1542 -863 -116 58
-207 127 -305 229 -130 138 -208 280 -259 475 -23 84 -26 117 -26 256 0 141 3
171 26 258 81 305 292 565 572 704 59 30 190 73 265 88 91 18 301 18 397 0z"/>
</g>
</svg>
